<?xml version="1.0" encoding="UTF-8"?>
<svg width="92px" height="32px" viewBox="0 0 92 32" version="1.1" xmlns="http://www.w3.org/2000/svg" xmlns:xlink="http://www.w3.org/1999/xlink">
    <!-- Generator: sketchtool 53.1 (72631) - https://sketchapp.com -->
    <title>94D59682-5BB7-4A4D-81A2-356B89B86D6A</title>
    <desc>Created with sketchtool.</desc>
    <g id="Symbols" stroke="none" stroke-width="1" fill="none" fill-rule="evenodd">
        <g id="Wifi-Login-Widget" transform="translate(-20.000000, -14.000000)">
            <g id="logo" transform="translate(20.000000, 14.000000)">
                <path d="M18.9013638,0.284218182 L44.0615528,0.284218182 C44.1260252,0.284218182 44.1528283,0.330036364 44.1202299,0.386763636 L25.9469701,31.7824 C25.8426551,31.9729455 25.8013638,31.9627636 25.5956315,31.9627636 L0.157269291,31.9620364 C0.0927968504,31.9620364 0.0659937008,31.9162182 0.098592126,31.8602182 L18.2537417,0.464581818 C18.3587811,0.272581818 18.4022457,0.284945455 18.6029071,0.284945455 L18.9013638,0.284218182 Z" id="Fill-2" fill="#002B45"></path>
                <path d="M44.4675843,23.4149091 C44.2183874,23.4149091 44.1350803,23.3312727 44.1350803,23.0810909 L44.1350803,9.16545455 C44.1350803,8.91454545 44.2183874,8.83090909 44.4675843,8.83090909 L51.1806866,8.83090909 C53.7581354,8.83090909 55.2540409,10.2730909 55.2540409,12.6963636 L55.2540409,19.5494545 C55.2540409,21.9734545 53.7581354,23.4149091 51.1806866,23.4149091 L44.4675843,23.4149091 Z M50.7445921,20.4687273 C51.7210961,20.4687273 52.1158992,20.0505455 52.1158992,19.0061818 L52.1158992,13.2396364 C52.1158992,12.1952727 51.7210961,11.7770909 50.7445921,11.7770909 L47.273222,11.7770909 L47.273222,20.4687273 L50.7445921,20.4687273 Z M60.4400882,23.0810909 C60.4400882,23.3312727 60.3575055,23.4149091 60.1075843,23.4149091 L57.6344504,23.4149091 C57.3852535,23.4149091 57.3019465,23.3312727 57.3019465,23.0810909 L57.3019465,9.16545455 C57.3019465,8.91454545 57.3852535,8.83090909 57.6344504,8.83090909 L66.5504819,8.83090909 C66.8004031,8.83090909 66.8829858,8.91454545 66.8829858,9.16545455 L66.8829858,11.4432727 C66.8829858,11.6934545 66.8004031,11.7770909 66.5504819,11.7770909 L60.4400882,11.7770909 L60.4400882,14.932 L65.7789858,14.932 C66.0289071,14.932 66.1114898,15.0156364 66.1114898,15.2665455 L66.1114898,17.5436364 C66.1114898,17.7945455 66.0289071,17.8781818 65.7789858,17.8781818 L60.4400882,17.8781818 L60.4400882,23.0810909 Z M68.9091591,23.4149091 C68.6599622,23.4149091 68.5766551,23.3312727 68.5766551,23.0810909 L68.5766551,9.16545455 C68.5766551,8.91454545 68.6599622,8.83090909 68.9091591,8.83090909 L75.6222614,8.83090909 C78.1997102,8.83090909 79.6956157,10.2730909 79.6956157,12.6963636 L79.6956157,19.5494545 C79.6956157,21.9734545 78.1997102,23.4149091 75.6222614,23.4149091 L68.9091591,23.4149091 Z M75.1861669,20.4687273 C76.1626709,20.4687273 76.557474,20.0505455 76.557474,19.0061818 L76.557474,13.2396364 C76.557474,12.1952727 76.1626709,11.7770909 75.1861669,11.7770909 L71.7155213,11.7770909 L71.7155213,20.4687273 L75.1861669,20.4687273 Z M81.7507654,23.4570909 C81.5022929,23.4570909 81.4182614,23.3734545 81.4182614,23.1225455 L81.4182614,20.8447273 C81.4182614,20.5945455 81.5022929,20.5109091 81.7507654,20.5109091 C81.7507654,20.5109091 84.7143244,20.5734545 86.937537,20.5734545 C87.9147654,20.5734545 88.289285,20.5109091 88.289285,19.4658182 L88.289285,19.132 C88.289285,18.3589091 88.101663,18.1494545 87.3743559,17.9196364 L84.173915,16.8752727 C82.7808756,16.4367273 81.305978,15.9974545 81.305978,13.3858182 L81.305978,12.2578182 C81.305978,9.83381818 82.8018835,8.72690909 85.3793323,8.72690909 C87.6445606,8.72690909 90.2422929,8.78945455 90.2422929,8.78945455 C90.4922142,8.78945455 90.5747969,8.87309091 90.5747969,9.124 L90.5747969,11.4010909 C90.5747969,11.652 90.4922142,11.7349091 90.2422929,11.7349091 C90.2422929,11.7349091 87.8727496,11.6723636 85.8161512,11.6723636 C84.8389228,11.6723636 84.4441197,11.6723636 84.4441197,12.7174545 L84.4441197,13.0098182 C84.4441197,13.7829091 84.6310173,13.9290909 85.3583244,14.1589091 L88.5797732,15.2243636 C89.9518047,15.6636364 91.4477102,16.1021818 91.4477102,18.7349091 L91.4477102,19.884 C91.4477102,22.308 89.9518047,23.5196364 87.3743559,23.5196364 C84.7766236,23.5196364 81.7507654,23.4570909 81.7507654,23.4570909 L81.7507654,23.4570909 Z" id="Fill-4" fill="#002B45"></path>
                <path d="M29.2482488,20.9038545 L23.4087843,17.3736727 C23.3616976,17.3445818 23.3080913,17.3984 23.3363433,17.4456727 L26.8395874,23.3074909 C26.8678394,23.3547636 26.8337921,23.4151273 26.778737,23.4151273 L17.407052,23.4151273 C17.3527213,23.4151273 17.318674,23.3547636 17.346926,23.3074909 L20.8697291,17.4340364 C20.8979811,17.3874909 20.8443748,17.3336727 20.7980126,17.3620364 L14.9563748,20.9038545 C14.9092882,20.9322182 14.8491622,20.8980364 14.8491622,20.8434909 L14.8491622,11.4209455 C14.8491622,11.3656727 14.9092882,11.3322182 14.9563748,11.3605818 L20.7849732,14.8798545 C20.8320598,14.9082182 20.8849417,14.8544 20.8574142,14.8078545 L17.346926,8.93949091 C17.318674,8.89221818 17.3519969,8.83185455 17.407052,8.83185455 L26.7794614,8.83185455 C26.8337921,8.83185455 26.8678394,8.89149091 26.8395874,8.93876364 L23.3493827,14.7969455 C23.3211307,14.8434909 23.374737,14.8973091 23.4210992,14.8689455 L29.2482488,11.3598545 C29.2953354,11.3314909 29.354737,11.3656727 29.354737,11.4209455 L29.354737,20.8434909 C29.354737,20.8980364 29.2953354,20.9322182 29.2482488,20.9038545" id="Fill-6" fill="#FFFFFF"></path>
            </g>
        </g>
    </g>
</svg>